<svg xmlns="http://www.w3.org/2000/svg" viewBox="0 0 97.65 156.76">
    <defs>
        <style>
            .cls-1 {
                fill: #0e0e10;
            }
        </style>
    </defs>
    <g id="Laag_2" data-name="Laag 2">
        <g id="Laag_1-2" data-name="Laag 1">
            <g id="_16161fff" data-name="#16161fff">
                <path class="cls-1"
                    d="M74.36,0C76.15,0,78,0,79.75,0Q50.86,78.39,22,156.76H16.59q9.56-26,19.13-51.92c-5.18,0-10.36,0-15.53,0C13.5,86.51,6.72,68.25,0,50c6.27,0,12.54,0,18.81,0,4,12.29,7.89,24.6,11.84,36.9,4-12.27,7.88-24.58,11.85-36.86,4.49,0,9,0,13.47-.05Q65.13,25,74.36,0Z" />
                <path class="cls-1"
                    d="M59.23,71.45a28.71,28.71,0,0,1,14.48-3.18c8.08,0,16.31,2.46,22.62,7.62-2.92,4-5.92,7.85-8.87,11.79a27,27,0,0,0-15.69-5.41c-1.66,0-4,.29-4.54,2.16s1.39,3.16,3,3.51c5.27,1.33,10.78,1.75,15.9,3.68,4.75,1.63,9.51,4.86,10.94,9.94a18.26,18.26,0,0,1-3.61,16.37C89.34,122.6,83,124.46,77,124.86c-10.08.68-20.88-1.6-28.49-8.61,2.87-4.14,5.77-8.25,8.64-12.38a25.51,25.51,0,0,0,18.54,7.07,7.14,7.14,0,0,0,4.62-1.67,2.37,2.37,0,0,0-.36-3.47,13.5,13.5,0,0,0-5.23-1.93c-4.91-1-9.94-1.67-14.57-3.69-3.91-1.64-7.49-4.58-8.92-8.68,2.33-6.38,4.69-12.76,7-19.14C58.34,71.88,58.84,71.68,59.23,71.45Z" />
            </g>
        </g>
    </g>
</svg>